# xmcd
#
# Track frame offsets:
#	150
#	31989
#	50790
#	77720
#	112516
#
# Disc length: 2021 seconds
#
# Revision: 0
# Processed by: cddbd v1.5.2PL0 Copyright (c) Steve Scherf et al.
# Submitted via: EasyCDDAExtractor 12.0.4.1
#
DISCID=3207e305
DTITLE=Ana Popovic - Live at Rødovre Centrum, Copenhagen, 03.10.2009 (bootleg)
DYEAR=2009
DGENRE=Blues
TTITLE0=Wrong Woman
TTITLE1=U Complete Me
TTITLE2=How'd You Learn To Shake It Like That
TTITLE3=Blues Form
TTITLE4=Hold On
EXTD=
EXTT0=
EXTT1=
EXTT2=
EXTT3=
EXTT4=
PLAYORDER=
